<?xml version="1.0" encoding="UTF-8"?>
<svg xmlns="http://www.w3.org/2000/svg" xmlns:xlink="http://www.w3.org/1999/xlink" width="17px" height="17px" viewBox="0 0 17 17" version="1.1">
<g id="surface1">
<path style=" stroke:none;fill-rule:nonzero;fill:rgb(100%,0%,0%);fill-opacity:1;" d="M 8.058594 4.167969 C 6.847656 2.90625 4.808594 2.886719 3.488281 4.179688 C 3.480469 4.1875 3.480469 4.1875 3.472656 4.191406 C 2.191406 5.371094 2.171875 7.339844 3.488281 8.625 L 3.492188 8.628906 L 8.457031 13.5625 L 13.511719 8.625 C 13.519531 8.617188 13.519531 8.613281 13.527344 8.609375 C 14.808594 7.433594 14.828125 5.464844 13.511719 4.179688 C 12.195312 2.894531 10.144531 2.894531 8.832031 4.179688 C 8.726562 4.285156 8.589844 4.339844 8.441406 4.335938 C 8.296875 4.332031 8.164062 4.273438 8.058594 4.167969 Z M 8.460938 3.058594 C 6.796875 1.703125 4.335938 1.832031 2.730469 3.390625 C 0.96875 5.019531 0.992188 7.707031 2.726562 9.402344 L 8.066406 14.714844 C 8.28125 14.925781 8.617188 14.925781 8.832031 14.71875 L 14.269531 9.410156 C 16.03125 7.785156 16.007812 5.097656 14.273438 3.402344 C 12.660156 1.820312 10.199219 1.710938 8.460938 3.058594 Z M 8.460938 3.058594 "/>
</g>
</svg>
