<svg xmlns="http://www.w3.org/2000/svg" xmlns:xlink="http://www.w3.org/1999/xlink" xml:space="preserve" version="1.1" style="shape-rendering:geometricPrecision;text-rendering:geometricPrecision;image-rendering:optimizeQuality;" viewBox="0 0 100 100" x="0px" y="0px" fill-rule="evenodd" clip-rule="evenodd"><defs><style type="text/css">
   
    .fil0 {fill:black;fill-rule:nonzero}
   
  </style></defs><g><path class="fil0" d="M96.87 86.43c0,6.34 -5.3,11.63 -11.63,11.63l-70.48 0c-6.33,0 -11.63,-5.29 -11.63,-11.63l0 -52.37c0,-4.08 2.23,-7.78 5.65,-9.94l8.3 -5.08 0 -1.02c0,-3.66 3.01,-6.66 6.67,-6.66l5.9 0 11.13 -6.81c5.7,-3.48 12.74,-3.48 18.44,0l11.13 6.81 5.9 0c3.67,0 6.67,3 6.67,6.66l0 1.02 8.36 5.12c3.38,2.17 5.59,5.85 5.59,9.9l0 52.37zm-55.53 -27.56c5.28,3.1 11.52,3.4 17.08,0.01l21.16 -12.91c0,-9.32 0,-18.63 0,-27.95 0,-1.82 -1.5,-3.33 -3.33,-3.33 -17.5,0 -35,0 -52.5,0 -1.83,0 -3.33,1.5 -3.33,3.33l0 28.47 20.92 12.38zm-1.69 2.86c-11.06,-6.55 -22.12,-13.09 -33.19,-19.64l0 44.34c0,4.5 3.8,8.29 8.3,8.29l70.48 0c4.5,0 8.3,-3.78 8.3,-8.29l0 -45.07 -33.39 20.36c-9.39,5.72 -17.75,1.66 -20.5,0.01zm-33.19 -23.5l10.62 6.28 0 -21.57 -6.55 4c-2.45,1.56 -4.07,4.19 -4.07,7.12l0 4.17zm76.46 5.71l10.62 -6.48 0 -3.4c0,-2.92 -1.61,-5.53 -4.05,-7.1l-6.57 -4.02 0 21zm-40.41 -36.55l-6.49 3.97 27.96 0 -6.49 -3.97c-4.62,-2.82 -10.36,-2.82 -14.98,0z"/></g></svg>