<svg xmlns="http://www.w3.org/2000/svg" xmlns:xlink="http://www.w3.org/1999/xlink" xml:space="preserve" version="1.1" style="shape-rendering:geometricPrecision;text-rendering:geometricPrecision;image-rendering:optimizeQuality;" viewBox="0 0 100 125" x="0px" y="0px" fill-rule="evenodd" clip-rule="evenodd"><defs><style type="text/css">
   
    .fil0 {fill:black;fill-rule:nonzero}
   
  </style></defs><g><path class="fil0" d="M96.87 80.72c0,6.33 -5.3,11.63 -11.63,11.63l-70.48 0c-6.38,0 -11.63,-5.25 -11.63,-11.63l0 -61.44c0,-6.39 5.23,-11.63 11.63,-11.63l70.48 0c6.36,0 11.63,5.27 11.63,11.63l0 61.44zm-54.11 -46.22l14.49 0c2.75,0 5,2.24 5,5l0 7.71 31.29 -19.08 0 -8.85c0,-4.54 -3.76,-8.29 -8.3,-8.29l-70.48 0c-4.56,0 -8.3,3.73 -8.3,8.29l0 9.62 31.29 18.51 0 -7.91c0,-2.76 2.25,-5 5.01,-5zm19.49 16.6l0 9.4c0,2.76 -2.25,5 -5,5l-14.49 0c-2.76,0 -5.01,-2.24 -5.01,-5l0 -9.22 -31.29 -18.52 0 47.96c0,4.55 3.75,8.29 8.3,8.29l70.48 0c4.5,0 8.3,-3.79 8.3,-8.29l0 -48.7 -31.29 19.08zm-5 -13.27l-14.49 0c-0.92,0 -1.67,0.75 -1.67,1.67l0 21c0,0.92 0.75,1.67 1.67,1.67l14.49 0c0.91,0 1.66,-0.75 1.66,-1.67l0 -21c0,-0.92 -0.75,-1.67 -1.66,-1.67z"/></g><text x="0" y="115" fill="#000000" font-size="5px" font-weight="bold" font-family="'Helvetica Neue', Helvetica, Arial-Unicode, Arial, Sans-serif">Created by Hadi</text><text x="0" y="120" fill="#000000" font-size="5px" font-weight="bold" font-family="'Helvetica Neue', Helvetica, Arial-Unicode, Arial, Sans-serif">from the Noun Project</text></svg>